<!--?xml version="1.0" standalone="no"?--><svg version="1.0" xmlns="http://www.w3.org/2000/svg" width="300.000000pt" height="223.000000pt" viewBox="0 0 300.000000 223.000000" preserveAspectRatio="xMidYMid meet">
<metadata>
  <rdf:rdf xmlns:rdf="http://www.w3.org/1999/02/22-rdf-syntax-ns#" xmlns:rdfs="http://www.w3.org/2000/01/rdf-schema#" xmlns:dc="http://purl.org/dc/elements/1.1/">
    <rdf:description dc:title="cartoon eyes looking down" dc:publisher="Hiox" dc:date="2015-04-11" dc:format="image/svg+xml" dc:language="en">
      <dc:creator>
        <rdf:bag>
          <rdf:li>svgimages.com</rdf:li>
        </rdf:bag>
      </dc:creator>
    </rdf:description>
  </rdf:rdf>
</metadata>
<g transform="translate(0.000000,223.000000) scale(0.100000,-0.100000)" fill="#151515" stroke="none">
<path d="M820 2045 c-14 -8 -32 -14 -40 -15 -46 -1 -180 -137 -249 -252 -21
-36 -22 -38 -4 -38 11 0 35 16 54 36 38 39 145 112 199 134 25 11 71 15 155
14 108 0 125 -3 173 -27 45 -22 82 -27 82 -10 0 10 -115 109 -144 124 -99 52
-175 63 -226 34z" id="node1" class="node"></path>
<path d="M1985 2030 c-53 -25 -175 -123 -175 -141 0 -19 34 -15 77 9 45 25 55
27 178 27 l130 0 69 -39 c73 -41 86 -50 151 -108 23 -21 47 -38 54 -38 14 0
15 27 0 35 -6 4 -13 14 -17 24 -17 39 -100 139 -146 176 -113 87 -216 105
-321 55z" id="node2" class="node"></path>
<path d="M854 1685 c-163 -40 -280 -170 -355 -396 -27 -82 -32 -112 -36 -235
-6 -155 3 -231 43 -353 28 -87 39 -110 74 -166 107 -170 217 -245 360 -245
108 0 176 29 268 114 17 16 32 35 32 42 0 7 4 14 9 16 14 5 77 110 89 148 36
110 43 139 54 228 26 208 -5 412 -87 568 -86 165 -195 260 -324 284 -62 12
-60 12 -127 -5z m105 -47 c72 -23 101 -40 144 -82 46 -45 94 -111 116 -161 7
-16 17 -37 21 -45 10 -22 37 -136 51 -215 19 -114 0 -294 -44 -408 -32 -82
-38 -77 -52 41 -14 129 -114 224 -236 225 -95 1 -167 -54 -214 -163 -22 -48
-28 -180 -11 -232 12 -40 -14 -37 -45 4 -30 41 -69 117 -69 135 0 7 -3 13 -8
13 -10 0 -42 145 -42 190 0 19 -5 51 -10 70 -17 54 13 262 50 355 57 143 159
251 258 272 26 6 49 11 51 12 3 0 21 -4 40 -11z m10 -724 c40 -33 41 -71 3
-107 -30 -29 -65 -34 -105 -16 -41 19 -59 78 -34 110 35 45 92 50 136 13z" id="node3" class="node"></path>
<path d="M1998 1686 c-91 -20 -223 -124 -268 -212 -8 -16 -25 -46 -37 -66 -55
-90 -96 -276 -97 -443 -2 -266 104 -511 269 -620 61 -40 111 -55 189 -55 109
0 189 38 279 134 78 82 122 158 157 265 76 240 64 501 -33 714 -36 77 -110
171 -171 216 -56 42 -65 46 -144 67 -62 16 -68 16 -144 0z m149 -52 c17 -4 39
-15 49 -25 9 -10 22 -19 29 -19 16 0 77 -67 115 -128 77 -120 111 -310 91
-503 -15 -147 -45 -239 -111 -336 -41 -61 -66 -71 -53 -21 4 18 8 67 8 108 -1
64 -6 85 -33 141 -26 53 -44 74 -87 104 -50 34 -61 38 -119 38 -77 0 -129 -26
-178 -86 -33 -42 -58 -116 -58 -177 0 -33 -14 -70 -23 -60 -14 18 -51 124 -59
169 -44 252 1 491 122 656 52 71 138 135 181 135 10 0 21 5 25 11 4 7 19 8 38
4 17 -3 45 -8 63 -11z m-14 -706 c26 -13 47 -46 47 -74 0 -9 -14 -29 -31 -45
-41 -38 -86 -39 -123 -3 -34 35 -34 77 0 109 30 28 66 32 107 13z" id="node4" class="node"></path>
</g>
<g transform="translate(0.000000,223.000000) scale(0.100000,-0.100000)" fill="#FFFFFF" stroke="none">

<path d="M868 1637 c-99 -21 -201 -129 -258 -272 -37 -93 -67 -301 -50 -355 5
-19 10 -51 10 -70 0 -45 32 -190 42 -190 5 0 8 -6 8 -13 0 -18 39 -94 69 -135
31 -41 57 -44 45 -4 -17 52 -11 184 11 232 47 109 119 164 214 163 122 -1 222
-96 236 -225 14 -118 20 -123 52 -41 44 114 63 294 44 408 -14 79 -41 193 -51
215 -4 8 -14 29 -21 45 -37 84 -133 193 -192 218 -39 17 -102 38 -108 36 -2
-1 -25 -6 -51 -12z" id="node6" class="node"></path>
<path d="M865 928 c-80 -46 -43 -148 52 -148 36 0 83 46 83 81 0 55 -83 97
-135 67z" id="node7" class="node"></path>
<path d="M2046 1641 c-4 -6 -15 -11 -25 -11 -43 0 -129 -64 -181 -135 -121
-165 -166 -404 -122 -656 8 -45 45 -151 59 -169 9 -10 23 27 23 60 0 61 25
135 58 177 49 60 101 86 178 86 58 0 69 -4 119 -38 43 -30 61 -51 87 -104 27
-56 32 -77 33 -141 0 -41 -4 -90 -8 -108 -13 -50 12 -40 53 21 66 97 96 189
111 336 20 193 -14 383 -91 503 -38 61 -99 128 -115 128 -7 0 -20 9 -29 19
-10 10 -32 21 -49 25 -18 3 -46 8 -63 11 -19 4 -34 3 -38 -4z" id="node8" class="node"></path>
<path d="M2026 915 c-34 -32 -34 -74 0 -109 37 -36 82 -35 123 3 17 16 31 36
31 45 0 73 -98 113 -154 61z" id="node9" class="node"></path>
</g>
</svg>